# xmcd
#
# Track frame offsets:
#	150
#	13125
#	30075
#	41035
#	54985
#	65635
#	81689
#	93126
#	105711
#	121116
#	136344
#	150318
#
# Disc length: 2269 seconds
#
# Revision: 0
# Processed by: cddbd v1.5.2PL0 Copyright (c) Steve Scherf et al.
# Submitted via: EasyCDDAExtractor 9.0.0.1
#
DISCID=9008db0c
DTITLE=Diácono Manoel Aragão - Renovado
DYEAR=2010
DGENRE=Gospel
TTITLE0=Renovado
TTITLE1=Sua morada
TTITLE2=Eis me aqui
TTITLE3=Pedido Divino
TTITLE4=Pra te seguir
TTITLE5=Para te servir
TTITLE6=Sou feliz
TTITLE7=Viva voz
TTITLE8=Meu louvor
TTITLE9=Glória ao nosso Rei
TTITLE10=Para te glorificar
TTITLE11=Quem é este homem
EXTD=
EXTT0=
EXTT1=
EXTT2=
EXTT3=
EXTT4=
EXTT5=
EXTT6=
EXTT7=
EXTT8=
EXTT9=
EXTT10=
EXTT11=
PLAYORDER=
